<svg width="68" height="56" viewBox="0 0 68 56" fill="none" xmlns="http://www.w3.org/2000/svg">
<path d="M13.0994 0.100006V7.7H11.5994V2.90001L11.3994 3.60001L9.59937 7.7H8.39941L6.59937 3.60001L6.39941 2.90001V7.7H4.89941V0.100006H6.6994L8.99939 4.90001L9.1994 5.30001L9.39941 4.90001L11.6994 0.100006H13.0994Z" fill="#999999"/>
<path d="M19.0998 0.100006L22.1998 7.7H20.4998L19.7998 6H16.6998L15.9998 7.7H14.2998L17.3998 0.100006H19.0998ZM18.2998 1.90001L18.0998 2.30001L17.0998 4.7H19.2998L18.2998 2.30001V1.90001Z" fill="#999999"/>
<path d="M26.399 0.100002C27.599 0.100002 28.599 0.500001 29.299 1.2C29.999 1.9 30.399 2.8 30.399 3.9C30.399 5 29.999 5.9 29.299 6.6C28.599 7.3 27.599 7.6 26.399 7.6H23.499V0H26.399V0.100002ZM24.999 1.5V6.2H26.399C27.999 6.2 28.899 5.3 28.899 3.8C28.899 2.3 27.999 1.5 26.399 1.5H24.999Z" fill="#999999"/>
<path d="M36.6992 0.100002V1.5H33.6992V3.1H36.2992V4.4H33.6992V6.2H36.6992V7.6H32.1992V0H36.6992V0.100002Z" fill="#999999"/>
<path d="M42.999 0.100006V7.7H41.499V0.100006H42.999Z" fill="#999999"/>
<path d="M51.599 0.100002V7.7H50.099L46.899 3.2L46.599 2.7V7.7H44.999V0.100002H46.499L49.699 4.6L49.999 5.1V0H51.599V0.100002Z" fill="#999999"/>
<path d="M60.5998 0.100006L63.6998 7.7H61.9998L61.2998 6H58.1998L57.4998 7.7H55.7998L58.8998 0.100006H60.5998ZM59.7998 1.90001L59.5998 2.30001L58.5998 4.7H60.7998L59.7998 2.30001V1.90001Z" fill="#999999"/>
<path d="M7.89966 32.2H6.19965C5.89965 31.4 5.29966 31 4.39966 31C3.69966 31 3.19962 31.2 2.79962 31.7C2.39962 32.2 2.19965 32.8 2.19965 33.5C2.19965 34.2 2.39962 34.8 2.79962 35.3C3.19962 35.8 3.79963 36 4.49963 36C5.49963 36 6.09966 35.6 6.39966 34.8H7.99963C7.59963 36.6 6.39963 37.5 4.49963 37.5C3.39963 37.5 2.39965 37.1 1.69965 36.4C0.999646 35.7 0.599609 34.7 0.599609 33.6C0.599609 32.5 0.999646 31.5 1.69965 30.8C2.39965 30.1 3.29963 29.7 4.49963 29.7C6.29963 29.7 7.39966 30.6 7.89966 32.2Z" fill="#999999"/>
<path d="M28.4996 23.6H24.9996C24.0996 21.2 22.2996 20.1 19.4996 20.1C17.5996 20.1 15.9996 20.8 14.7996 22.2C13.5996 23.6 12.9996 25.3 12.9996 27.5C12.9996 29.6 13.5996 31.4 14.7996 32.8C15.9996 34.2 17.5996 34.9 19.5996 34.9C22.9996 34.9 25.1996 33.2 25.2996 30H19.8997V27H28.6996V28.5C28.6996 31.4 27.8996 33.7 26.1996 35.3C24.5996 37 22.3996 37.8 19.5996 37.8C16.6996 37.8 14.2997 36.8 12.3997 34.9C10.4997 32.9 9.59961 30.5 9.59961 27.5C9.59961 24.5 10.4997 22.1 12.3997 20.1C14.2997 18.1 16.5996 17.2 19.4996 17.2C24.1996 17 27.2996 19.5 28.4996 23.6Z" fill="#999999"/>
<path d="M51.9 17.4V37.3H48.7V23.5L48.1 25.1L42.7 37.3H40.1L34.7 25.1L34.2 23.5V37.3H31V17.4H34.6L40.9 31.2L41.4 32.4L41.9 31.2L48.2 17.4H51.9Z" fill="#999999"/>
<path d="M61.1 17.4C63.2 17.4 64.8 18 66 19.1C67.2 20.2 67.9 21.8 67.9 23.6C67.9 25.4 67.3 26.9 66 28.1C64.8 29.2 63.2 29.8 61.1 29.8H58.2V37.3H55V17.4H61.1ZM58.2 20.4V26.9H61.1C63.2 26.9 64.6 25.7 64.6 23.7C64.6 21.6 63.3 20.4 61.1 20.4H58.2Z" fill="#999999"/>
<path d="M13.6998 47.4V48.8H10.7998V50.5H13.2998V51.9H10.7998V55H9.2998V47.4H13.6998Z" fill="#999999"/>
<path d="M19.1994 47.4L22.2994 55H20.5994L19.8994 53.3H16.7994L16.0994 55H14.3994L17.4994 47.4H19.1994ZM18.3994 49.2L18.1994 49.6L17.1994 52H19.3994L18.3994 49.6V49.2Z" fill="#999999"/>
<path d="M30.5002 49.9H28.8002C28.5002 49.1 27.9002 48.7 27.0002 48.7C26.3002 48.7 25.8002 48.9 25.4002 49.4C25.0002 49.9 24.8002 50.5 24.8002 51.2C24.8002 51.9 25.0002 52.5 25.4002 53C25.8002 53.5 26.4002 53.7 27.1002 53.7C28.1002 53.7 28.7002 53.3 29.0002 52.5H30.6002C30.2002 54.3 29.0002 55.2 27.1002 55.2C26.0002 55.2 25.0002 54.8 24.3002 54.1C23.6002 53.4 23.2002 52.4 23.2002 51.3C23.2002 50.2 23.6002 49.2 24.3002 48.5C25.0002 47.8 25.9002 47.4 27.1002 47.4C28.9002 47.3 30.1002 48.3 30.5002 49.9Z" fill="#999999"/>
<path d="M33.5996 47.4V55H32.0996V47.4H33.5996Z" fill="#999999"/>
<path d="M37.2002 47.4V53.5H40.5002V54.9H35.7002V47.3H37.2002V47.4Z" fill="#999999"/>
<path d="M43.3994 47.4V55H41.8994V47.4H43.3994Z" fill="#999999"/>
<path d="M51.2998 47.4V48.9H48.7998V55H47.2998V48.9H44.7998V47.5H51.2998V47.4Z" fill="#999999"/>
<path d="M59.2002 47.4L56.2002 52.1V54.9H54.7002V52.1L51.7002 47.4H53.5002L55.2002 50.1L55.5002 50.6L55.8002 50.1L57.5002 47.4H59.2002Z" fill="#999999"/>
</svg>
