<svg xmlns="http://www.w3.org/2000/svg" viewBox="0 0 32.5 42.3"><defs><style>.cls-1{fill:#999999;}</style></defs><title>Asset 3</title><g id="Layer_2" data-name="Layer 2"><g id="Layer_1-2" data-name="Layer 1"><g id="Layer_2-2" data-name="Layer 2"><g id="Layer_1-2-2" data-name="Layer 1-2"><path class="cls-1" d="M16.2,2.2a14,14,0,1,1-14,14,14,14,0,0,1,14-14m0-2.2A16.3,16.3,0,1,0,32.5,16.2h0A16.2,16.2,0,0,0,16.4,0Z"/><rect class="cls-1" x="22.5" y="17.6" width="2.2" height="11.81" transform="translate(-9.7 23.5) rotate(-45)"/><rect class="cls-1" x="8.2" y="2.8" width="2.2" height="12.81" transform="translate(-3.8 9.3) rotate(-45)"/><path class="cls-1" d="M4.1,39.3H3.2a1.1,1.1,0,0,0-1-.7A1.4,1.4,0,0,0,.9,40h0A1.2,1.2,0,0,0,2,41.5h.2a1,1,0,0,0,1.1-.8H2.2v-.8h2v.4a1.9,1.9,0,0,1-1.7,2H2.2A2.1,2.1,0,0,1,0,40.2H0a2,2,0,0,1,2-2.2c0-.1.1-.1.2-.1A1.8,1.8,0,0,1,4.1,39.3Z"/><path class="cls-1" d="M6.9,42.3l-.8-1.7H5.7v1.7H4.8V37.9H6.2a1.4,1.4,0,0,1,1.5,1.3h0a1.1,1.1,0,0,1-.8,1.1l1,1.9ZM5.7,39.9h.5c.4,0,.7-.2.7-.6a.7.7,0,0,0-.7-.6H5.7Z"/><path class="cls-1" d="M11.4,42.3l-.3-1H9.3l-.3,1H8.1l1.6-4.4h.9l1.7,4.4ZM9.6,40.5h1.2l-.5-1.3h0Z"/><path class="cls-1" d="M12.9,42.3V37.9h.8v4.4Z"/><path class="cls-1" d="M17.4,42.3l-1.9-2.7v2.7h-.8V37.9h.8l1.7,2.6.3.4v-3h.8v4.4Z"/><path class="cls-1" d="M21.1,38.7v1h1.4v.7H21.1v1.9h-.9V37.9h2.5v.8Z"/><path class="cls-1" d="M25.3,42.3l-.8-1.7h-.4v1.7h-.9V37.9h1.4a1.4,1.4,0,0,1,1.5,1.3h0a1.1,1.1,0,0,1-.8,1.1l1,1.9Zm-1.2-2.4h.5c.4,0,.7-.2.7-.6a.7.7,0,0,0-.7-.6h-.5Z"/><path class="cls-1" d="M27.6,38.7v.9h1.5v.8H27.6v1h1.7v.9H26.8V37.9h2.5v.8Z"/><path class="cls-1" d="M30.9,38.7v.9h1.4v.8H30.9v1h1.6v.9H30V37.9h2.5v.8Z"/></g></g><path class="cls-1" d="M21.2,14.7a4.5,4.5,0,0,1-2.1-.7,2.8,2.8,0,0,1,1.5-1.1,2.7,2.7,0,0,1,1.6.2,8,8,0,0,0,1.6-.4,7.1,7.1,0,0,0,1.5-1,4.6,4.6,0,0,1-1.4,1.2l-1.5.7C22.1,14,21.7,14.6,21.2,14.7Z"/><path class="cls-1" d="M18.1,11.8c-.2.8.8,2,.8,2a3.3,3.3,0,0,0,1-1.6,2.6,2.6,0,0,0-.4-1.5A11.9,11.9,0,0,1,19.8,9a7.4,7.4,0,0,1,.8-1.5,5,5,0,0,0-1,1.5,10.4,10.4,0,0,1-.6,1.5C18.7,10.8,18.1,11.2,18.1,11.8Z"/><path class="cls-1" d="M19.4,16.6c-.8.2-2-.7-2-.7a2.9,2.9,0,0,1,1.4-1.1,3.9,3.9,0,0,1,1.6.2,4.4,4.4,0,0,0,1.6-.3,8.5,8.5,0,0,0,1.5-1,4.6,4.6,0,0,1-1.4,1.2l-1.5.6A2.2,2.2,0,0,1,19.4,16.6Z"/><path class="cls-1" d="M16.3,13.7a3.8,3.8,0,0,0,.8,2,2.8,2.8,0,0,0,1-1.5,2.7,2.7,0,0,0-.3-1.6A3.6,3.6,0,0,1,18,11a3.7,3.7,0,0,1,.9-1.6,4.5,4.5,0,0,0-1.1,1.5,11.5,11.5,0,0,0-.5,1.5A2.6,2.6,0,0,0,16.3,13.7Z"/><path class="cls-1" d="M17.7,18.5c-.8.2-2.1-.7-2.1-.7a3.4,3.4,0,0,1,1.5-1.1,2.5,2.5,0,0,1,1.5.3l1.7-.4a3.9,3.9,0,0,0,1.4-1,4.6,4.6,0,0,1-1.4,1.2l-1.5.6C18.6,17.8,18.2,18.4,17.7,18.5Z"/><path class="cls-1" d="M14.5,15.6c-.1.8.9,2,.9,2a3.6,3.6,0,0,0,1-1.5,3.8,3.8,0,0,0-.4-1.6,7.5,7.5,0,0,1,.2-1.6,4.7,4.7,0,0,1,.9-1.6A4.5,4.5,0,0,0,16,12.8c-.3.8-.4,1.5-.5,1.6A2,2,0,0,0,14.5,15.6Z"/><path class="cls-1" d="M15.9,20.4a3.7,3.7,0,0,1-2.1-.6,2.8,2.8,0,0,1,1.5-1.1,2.1,2.1,0,0,1,1.6.2,8,8,0,0,0,1.6-.4,7.1,7.1,0,0,0,1.5-1,5.8,5.8,0,0,1-1.5,1.2l-1.4.7C16.8,19.7,16.4,20.3,15.9,20.4Z"/><path class="cls-1" d="M12.7,17.6c-.1.8.9,1.9.9,1.9a2.8,2.8,0,0,0,1-1.5,2.2,2.2,0,0,0-.4-1.5,11.9,11.9,0,0,1,.3-1.7,7.4,7.4,0,0,1,.8-1.5,3.8,3.8,0,0,0-1,1.5c-.3.7-.5,1.4-.6,1.5S12.8,17,12.7,17.6Z"/><path class="cls-1" d="M14.1,22.4a4,4,0,0,1-2-.7,2.9,2.9,0,0,1,1.4-1.1,2.7,2.7,0,0,1,1.6.2,6.6,6.6,0,0,0,1.6-.4,7.1,7.1,0,0,0,1.5-1,4.6,4.6,0,0,1-1.4,1.2c-.7.4-1.5.6-1.5.7A2.2,2.2,0,0,1,14.1,22.4Z"/><path class="cls-1" d="M11,19.5a3.8,3.8,0,0,0,.8,2,3.3,3.3,0,0,0,1-1.6,2.5,2.5,0,0,0-.3-1.5,4.1,4.1,0,0,1,.2-1.7,3.8,3.8,0,0,1,.9-1.5,4.5,4.5,0,0,0-1.1,1.5,11.5,11.5,0,0,0-.5,1.5C11.6,18.5,11,19,11,19.5Z"/><path class="cls-1" d="M22.3,11.9c-.5.6-1.9.5-1.9.5a3.2,3.2,0,0,1,.3-2,5,5,0,0,1,2-.8A14.5,14.5,0,0,0,24.5,8,15.7,15.7,0,0,0,23,9.9,4.8,4.8,0,0,1,22.3,11.9Z"/><path class="cls-1" d="M12.1,23.6a5.1,5.1,0,0,0-1.6-.3,2.8,2.8,0,0,1,2-.4A2.2,2.2,0,0,1,14,24.6,3.7,3.7,0,0,0,12.1,23.6Z"/><path class="cls-1" d="M9,22.6a5.5,5.5,0,0,1,.5,1.5,2.4,2.4,0,0,0,.2-1.9,2.2,2.2,0,0,0-1.8-1.4A3.5,3.5,0,0,1,9,22.6Z"/><rect class="cls-1" x="5.8" y="18.3" width="17.9" height="0.43" transform="translate(-8.9 16.9) rotate(-47.4)"/></g></g></svg>
