<svg width="61" height="60" viewBox="0 0 61 60" fill="none" xmlns="http://www.w3.org/2000/svg">
<path d="M22.5892 1.83663V10.0495H20.6147V1.83663H17.3665V0H25.8572V1.83663H22.5892Z" fill="#999999"/>
<path d="M31.8107 10.0495L29.8361 6.27723H28.9624V10.0495H26.9878V0H30.0682C32.2303 0 33.5879 1.29208 33.5879 3.20297C33.6045 3.77932 33.4495 4.34758 33.1426 4.83518C32.8358 5.32279 32.391 5.70764 31.865 5.94059L34.0272 10.0594L31.8107 10.0495ZM28.9624 4.54951H30.078C31.0061 4.54951 31.6083 4.09406 31.6083 3.20297C31.6083 2.31188 31.0061 1.83663 30.078 1.83663H28.9624V4.54951Z" fill="#999999"/>
<path d="M39.4918 10.0495H37.5172V6.31683L33.7112 0H35.977L38.1244 3.5198L38.5045 4.19307L38.85 3.5198L41.0024 0H43.2633L39.4918 6.31683V10.0495Z" fill="#999999"/>
<path d="M4.81306 27.2772L2.83847 23.5049H1.97459V27.2772H0V17.2277H3.08036C5.24253 17.2277 6.60006 18.5198 6.60006 20.4307C6.61389 21.0065 6.4565 21.5734 6.14792 22.0592C5.83935 22.5449 5.39357 22.9276 4.86736 23.1584L7.02954 27.2772H4.81306ZM1.97459 21.7822H3.08036C4.00842 21.7822 4.61067 21.3267 4.61067 20.4356C4.61067 19.5446 4.00842 19.0693 3.08036 19.0693H1.97459V21.7822Z" fill="#999999"/>
<path d="M8.25879 27.2772V17.2277H10.2334V27.2772H8.25879Z" fill="#999999"/>
<path d="M18.2649 20.0396H16.2904C16.3024 19.8733 16.2792 19.7063 16.2221 19.5496C16.165 19.393 16.0754 19.2502 15.9592 19.1309C15.843 19.0116 15.7029 18.9184 15.548 18.8574C15.3932 18.7964 15.2273 18.7691 15.0612 18.7773C14.9131 18.7594 14.7629 18.7745 14.6214 18.8216C14.4798 18.8688 14.3504 18.9467 14.2424 19.0498C14.1344 19.1529 14.0505 19.2787 13.9966 19.4181C13.9427 19.5576 13.9202 19.7073 13.9307 19.8565C13.9307 20.6287 14.4737 20.8763 15.693 21.307C17.8108 22.0396 18.571 22.9159 18.571 24.4208C18.571 26.3614 17.1345 27.4654 15.2488 27.4654C12.9582 27.4654 11.7932 26.1139 11.7241 24.2079H13.6987C13.6823 24.4175 13.7121 24.6282 13.7861 24.8249C13.8601 25.0216 13.9764 25.1996 14.1267 25.3461C14.2771 25.4927 14.4578 25.6041 14.656 25.6727C14.8542 25.7412 15.065 25.7651 15.2734 25.7426C16.1225 25.7426 16.5915 25.2476 16.5915 24.5941C16.5915 23.9406 16.0633 23.5297 14.8193 23.1089C12.9977 22.505 11.9512 21.703 11.9512 20.0248C11.9512 18.3466 13.1409 17.0545 15.1155 17.0545C16.9815 17.0396 18.1958 18.0446 18.2649 20.0396Z" fill="#999999"/>
<path d="M28.592 27.2772H26.2274L23.4926 23.3168L22.0117 25.198V27.2772H20.0371V17.2277H22.0117V22.3416L25.64 17.2277H28.0342L24.8107 21.7376L28.592 27.2772Z" fill="#999999"/>
<path d="M34.5554 19.0644V21.3366H37.7049V23.1733H34.5554V27.2772H32.5808V17.2277H38.2528V19.0644H34.5554Z" fill="#999999"/>
<path d="M44.3937 27.2772L42.4191 23.5049H41.5305V27.2772H39.5559V17.2277H42.6363C44.7984 17.2277 46.1609 18.5198 46.1609 20.4307C46.1741 21.0064 46.0164 21.573 45.7079 22.0586C45.3994 22.5443 44.954 22.9271 44.4282 23.1584L46.5904 27.2772H44.3937ZM41.5453 21.7822H42.661C43.5939 21.7822 44.1913 21.3267 44.1913 20.4356C44.1913 19.5446 43.5939 19.0693 42.661 19.0693H41.5453V21.7822Z" fill="#999999"/>
<path d="M49.804 19.0644V21.203H53.0966V23.0297H49.804V25.4406H53.615V27.2772H47.8442V17.2277H53.615V19.0644H49.804Z" fill="#999999"/>
<path d="M57.189 19.0644V21.203H60.4866V23.0297H57.189V25.4406H61V27.2772H55.2292V17.2277H61V19.0644H57.189Z" fill="#999999"/>
<path d="M31.1443 34.0693L19.7114 36.302C19.7114 36.302 20.3482 41.698 20.5951 47.802C20.8419 53.906 31.1443 60 31.1443 60C31.1443 60 40.9432 53.2525 41.4023 48.3416C41.8614 43.4307 42.5722 36.302 42.5722 36.302L31.1443 34.0693ZM28.3009 51.7426L23.784 46.4802L25.6697 44.8713L28.4934 48.1634L37.9171 39.0446L39.6202 40.8218L28.3009 51.7426Z" fill="#999999"/>
</svg>
