<svg width="49" height="56" viewBox="0 0 49 56" fill="none" xmlns="http://www.w3.org/2000/svg">
<path d="M9.39999 0.100006V7.7H7.89999V2.90001L7.70001 3.60001L5.89999 7.7H4.70001L2.89999 3.60001L2.70001 2.90001V7.7H1V0.100006H2.79999L5 4.90001L5.20001 5.30001L5.39999 4.90001L7.70001 0.100006H9.39999Z" fill="#999999"/>
<path d="M15.3996 0.100006L18.4996 7.7H16.7996L16.0996 6H12.9996L12.2996 7.7H10.5996L13.6996 0.100006H15.3996ZM14.5996 1.90001L14.3996 2.30001L13.3996 4.7H15.5996L14.5996 2.30001V1.90001Z" fill="#999999"/>
<path d="M22.6998 0.100002C23.8998 0.100002 24.8998 0.500001 25.5998 1.2C26.2998 1.9 26.6998 2.8 26.6998 3.9C26.6998 5 26.2998 5.9 25.5998 6.6C24.8998 7.3 23.8998 7.6 22.6998 7.6H19.7998V0H22.6998V0.100002ZM21.2998 1.5V6.2H22.6998C24.2998 6.2 25.1998 5.3 25.1998 3.8C25.1998 2.3 24.2998 1.5 22.6998 1.5H21.2998Z" fill="#999999"/>
<path d="M33 0.100002V1.5H30V3.1H32.6V4.4H30V6.2H33V7.6H28.5V0H33V0.100002Z" fill="#999999"/>
<path d="M39.2998 0.100006V7.7H37.7998V0.100006H39.2998Z" fill="#999999"/>
<path d="M47.9004 0.100002V7.7H46.4004L43.2004 3.2L42.9004 2.7V7.7H41.4004V0.100002H42.9004L46.1004 4.6L46.4004 5.1V0H47.9004V0.100002Z" fill="#999999"/>
<path d="M7.2998 47.4V48.9H4.7998V55H3.2998V48.9H0.799805V47.5H7.2998V47.4Z" fill="#999999"/>
<path d="M14.9996 47.4V55H13.4996V51.8H10.0996V55H8.59961V47.4H10.0996V50.3H13.4996V47.4H14.9996Z" fill="#999999"/>
<path d="M21.5996 47.4V48.8H18.5996V50.4H21.1996V51.7H18.5996V53.5H21.5996V54.9H17.0996V47.3H21.5996V47.4Z" fill="#999999"/>
<path d="M32.6002 47.4V51.9C32.6002 53.9 31.4002 55.1 29.4002 55.1C27.4002 55.1 26.2002 53.9 26.2002 51.9V47.4H27.7002V51.9C27.7002 53.1 28.2002 53.7 29.4002 53.7C30.5002 53.7 31.0002 53.1 31.0002 51.9V47.4H32.6002Z" fill="#999999"/>
<path d="M39.3002 49.5H37.8002C37.8002 48.9 37.4002 48.5 36.8002 48.5C36.2002 48.5 35.9002 48.8 35.9002 49.3C35.9002 49.9 36.2002 50.1 37.3002 50.4C38.9002 51 39.5002 51.6 39.5002 52.7C39.5002 54.1 38.4002 55 36.9002 55C35.1002 55 34.2002 54 34.2002 52.6H35.7002C35.7002 53.4 36.2002 53.8 36.9002 53.8C37.6002 53.8 38.0002 53.4 38.0002 52.9C38.0002 52.4 37.6002 52.1 36.6002 51.8C35.1002 51.3 34.4002 50.7 34.4002 49.5C34.4002 48.2 35.4002 47.2 36.9002 47.2C38.3002 47.3 39.2002 48.1 39.3002 49.5Z" fill="#999999"/>
<path d="M45.0998 47.4L48.1998 55H46.4998L45.7998 53.3H42.6998L41.9998 55H40.2998L43.3998 47.4H45.0998ZM44.2998 49.2L44.0998 49.6L43.0998 52H45.2998L44.2998 49.6V49.2Z" fill="#999999"/>
<path d="M24.5994 15.3H3.39941V28.5H24.5994V15.3Z" fill="#999999"/>
<path d="M45.6994 15.3H3.39941V17.2H45.6994V15.3Z" fill="#999999"/>
<path d="M45.6994 19.1H3.39941V21H45.6994V19.1Z" fill="#999999"/>
<path d="M45.6994 22.9H3.39941V24.8H45.6994V22.9Z" fill="#999999"/>
<path d="M45.6994 26.6H3.39941V28.5H45.6994V26.6Z" fill="#999999"/>
<path d="M45.6994 30.4H3.39941V32.3H45.6994V30.4Z" fill="#999999"/>
<path d="M45.6994 34.2H3.39941V36.1H45.6994V34.2Z" fill="#999999"/>
<path d="M45.6994 38H3.39941V39.9H45.6994V38Z" fill="#999999"/>
</svg>
