<svg width="47" height="32" viewBox="0 0 47 32" fill="none" xmlns="http://www.w3.org/2000/svg">
<path d="M21.8029 15.2822C19.7434 12.9957 18.4825 9.9435 18.4825 6.60419V0C18.4825 0 15.7611 2.69059 14.1429 7.09339C14.1429 7.09339 9.16238 6.15753 6.82972 9.97541C5.73694 11.762 3.88762 12.347 2.06982 12.4108V13.6976C4.39198 14.3463 7.81742 14.8568 13.1657 14.8568C13.1657 14.8568 12.7875 16.2818 12.7034 18.4407C13.9328 18.3556 15.1727 18.1429 16.3915 17.8026C18.3564 17.2496 20.1742 16.3988 21.8029 15.2822ZM10.2552 11.1559C9.70877 11.1559 9.27796 10.7092 9.27796 10.1668C9.27796 9.61383 9.71927 9.1778 10.2552 9.1778C10.8015 9.1778 11.2324 9.62446 11.2324 10.1668C11.2324 10.7092 10.8015 11.1559 10.2552 11.1559Z" fill="#161345"/>
<path d="M28.7065 32H47C47 31.9468 46.9895 22.9498 46.9895 22.9498C46.9895 18.4513 43.459 14.8036 39.0984 14.8036C35.9461 14.8036 33.2352 16.7072 31.9638 19.4616C31.7536 19.4616 31.5435 19.451 31.3333 19.451C31.2072 19.451 31.0812 19.451 30.9551 19.451C27.8764 19.4191 25.0814 18.2599 22.9063 16.3775C21.078 17.675 19.0186 18.6534 16.8015 19.2808C15.446 19.6637 14.08 19.887 12.7141 19.9827C12.8086 22.3862 13.355 25.3426 15.0047 28.1821C10.5705 29.0648 0 30.0751 0 32H16.9486H23.5788C25.4596 31.681 27.7608 31.1492 29.7782 30.2878C31.1022 29.7242 32.258 28.9266 33.0986 28.2566C33.7501 29.0435 34.5486 29.7029 35.4418 30.1815C35.4628 30.1921 28.6119 30.7345 28.7065 32Z" fill="#161345"/>
</svg>
