<svg width="75" height="55" viewBox="0 0 75 55" fill="none" xmlns="http://www.w3.org/2000/svg">
<path d="M17.8994 0.100002V7.7H16.3994L13.1993 3.2L12.8994 2.7V7.7H11.3994V0.100002H12.8994L16.0994 4.6L16.3994 5.1V0H17.8994V0.100002Z" fill="#999999"/>
<path d="M23.8997 0.100006L26.9996 7.7H25.2997L24.5996 6H21.4996L20.7997 7.7H19.0996L22.1996 0.100006H23.8997ZM23.0996 1.90001L22.8997 2.30001L21.8997 4.7H24.0996L23.0996 2.30001V1.90001Z" fill="#999999"/>
<path d="M34.0996 0.100006V1.5H31.5996V7.60001H30.0996V1.5H27.5996V0.100006H34.0996Z" fill="#999999"/>
<path d="M41.6997 0.100006V4.60001C41.6997 6.60001 40.4998 7.80001 38.4998 7.80001C36.4998 7.80001 35.2998 6.60001 35.2998 4.60001V0.100006H36.7998V4.60001C36.7998 5.80001 37.2998 6.40001 38.4998 6.40001C39.5998 6.40001 40.0997 5.80001 40.0997 4.60001V0.100006H41.6997Z" fill="#999999"/>
<path d="M45.9993 0.100002C47.6993 0.100002 48.7993 1.1 48.7993 2.5C48.7993 3.4 48.3993 4.1 47.4993 4.5L49.0992 7.6H47.3993L45.9993 4.8H45.1992V7.6H43.6992V0H45.9993V0.100002ZM45.1992 1.5V3.5H46.0992C46.7992 3.5 47.2993 3.1 47.2993 2.5C47.2993 1.9 46.8992 1.5 46.0992 1.5H45.1992Z" fill="#999999"/>
<path d="M54.4993 0.100006L57.5992 7.7H55.8993L55.1992 6H52.0992L51.3993 7.7H49.6992L52.7993 0.100006H54.4993ZM53.5992 1.90001L53.3993 2.30001L52.3993 4.7H54.5992L53.5992 2.30001V1.90001Z" fill="#999999"/>
<path d="M60.3994 0.100002V6.2H63.6993V7.6H58.8994V0H60.3994V0.100002Z" fill="#999999"/>
<path d="M2.09961 47.4V55H0.599609V47.4H2.09961Z" fill="#999999"/>
<path d="M10.7998 47.4V55H9.2998L6.09973 50.5L5.7998 50V55H4.2998V47.4H5.7998L8.99976 51.9L9.2998 52.4V47.3H10.7998V47.4Z" fill="#999999"/>
<path d="M20 49.9H18.3C18 49.1 17.3 48.7 16.4 48.7C15.7 48.7 15.2 48.9 14.7 49.4C14.3 49.9 14.1 50.5 14.1 51.2C14.1 51.9 14.3 52.5 14.7 53C15.1 53.5 15.7 53.7 16.4 53.7C17.6 53.7 18.3 53.2 18.4 52.2H16.5V50.9H20V51.5C20 52.6 19.7 53.5 19 54.1C18.3 54.7 17.5 55 16.4 55C15.2 55 14.3 54.6 13.6 53.9C12.9 53.2 12.5 52.2 12.5 51.1C12.5 50 12.9 49 13.6 48.3C14.3 47.6 15.3 47.2 16.4 47.2C18.3 47.3 19.5 48.3 20 49.9Z" fill="#999999"/>
<path d="M24.1993 47.4C25.8993 47.4 26.9994 48.4 26.9994 49.8C26.9994 50.7 26.5993 51.4 25.6993 51.8L27.2994 54.9H25.5994L24.1993 52.1H23.3994V54.9H21.8994V47.3H24.1993V47.4ZM23.2994 48.8V50.8H24.1993C24.8993 50.8 25.3994 50.4 25.3994 49.8C25.3994 49.1 24.9993 48.8 24.1993 48.8H23.2994Z" fill="#999999"/>
<path d="M33.1992 47.4V48.8H30.1992V50.4H32.7993V51.7H30.1992V53.5H33.1992V54.9H28.6992V47.3H33.1992V47.4Z" fill="#999999"/>
<path d="M37.9 47.4C39.1 47.4 40.1 47.8 40.8 48.5C41.5 49.2 41.9 50.1 41.9 51.2C41.9 52.3 41.5 53.2 40.8 53.9C40.1 54.6 39.1 54.9 37.9 54.9H35V47.3H37.9V47.4ZM36.5 48.9V53.6H37.9C39.5 53.6 40.4 52.7 40.4 51.2C40.4 49.7 39.5 48.9 37.9 48.9H36.5Z" fill="#999999"/>
<path d="M45.0996 47.4V55H43.5996V47.4H45.0996Z" fill="#999999"/>
<path d="M51.6992 47.4V48.8H48.6992V50.4H51.2993V51.7H48.6992V53.5H51.6992V54.9H47.1992V47.3H51.6992V47.4Z" fill="#999999"/>
<path d="M60.0996 47.4V55H58.5996L55.3997 50.5L55.0996 50V55H53.5996V47.4H55.0996L58.2997 51.9L58.5996 52.4V47.3H60.0996V47.4Z" fill="#999999"/>
<path d="M68 47.4V48.9H65.5V55H64V48.9H61.5V47.5H68V47.4Z" fill="#999999"/>
<path d="M73.8998 49.5H72.3998C72.3998 48.9 71.9998 48.5 71.3998 48.5C70.7998 48.5 70.4998 48.8 70.4998 49.3C70.4998 49.9 70.7998 50.1 71.8998 50.4C73.4998 51 74.0997 51.6 74.0997 52.7C74.0997 54.1 72.9998 55 71.4998 55C69.6998 55 68.7998 54 68.7998 52.6H70.2998C70.2998 53.4 70.7998 53.8 71.4998 53.8C72.1998 53.8 72.5997 53.4 72.5997 52.9C72.5997 52.4 72.1997 52.1 71.1997 51.8C69.6997 51.3 68.9998 50.7 68.9998 49.5C68.9998 48.2 69.9998 47.2 71.4998 47.2C72.8998 47.3 73.8998 48.1 73.8998 49.5Z" fill="#999999"/>
<path d="M37.1987 23.2L33.2988 39.9H41.0988L37.1987 23.2Z" fill="#999999"/>
<path d="M40.3994 25.5C36.0994 21.9 38.7994 11.2 48.9994 15.2C56.0994 18 60.1994 15.7 60.1994 15.7C60.2994 20.1 48.0994 31.9 40.3994 25.5Z" fill="#999999"/>
<path d="M33.9993 25.5C38.2993 21.9 35.5993 11.2 25.3993 15.2C18.2993 18 14.1992 15.7 14.1992 15.7C14.1992 20.1 26.3993 31.9 33.9993 25.5Z" fill="#999999"/>
</svg>
