<svg width="487" height="280" viewBox="0 0 487 280" fill="none" xmlns="http://www.w3.org/2000/svg">
<path d="M486.213 0.0311357C486.213 0.0311357 401.849 -4.7611 320.381 104.562C243.106 39.0679 172.521 0.0311357 30.0513 0.0311357L65.1944 43.361L0 90.3848C0 90.3848 39.536 122.133 83.1653 90.884L88.8561 140.004L0 279.978H31.5489L139.973 166.462C146.063 176.445 161.938 185.531 193.187 191.222C239.013 199.508 282.842 192.719 299.116 174.848C320.281 215.083 406.841 269.694 486.312 279.678L338.652 122.133C338.652 122.133 486.213 138.008 486.213 0.0311357ZM80.0703 60.034C76.9753 60.034 74.4794 57.538 74.4794 54.443C74.4794 51.348 76.9753 48.8521 80.0703 48.8521C83.1653 48.8521 85.6613 51.348 85.6613 54.443C85.7611 57.538 83.1653 60.034 80.0703 60.034Z" fill="#FFC7A1"/>
</svg>
