<svg width="333" height="540" viewBox="0 0 333 540" fill="none" xmlns="http://www.w3.org/2000/svg">
<path d="M85.7611 539.233H107.526H139.873H243.805C243.805 539.233 228.131 493.807 190.991 535.938C190.991 535.938 291.528 345.846 278.649 205.474C285.438 197.487 290.43 189.5 294.224 181.712C294.723 183.11 295.222 184.408 295.921 185.806C303.608 201.48 320.082 206.472 332.661 196.888L304.707 139.98L263.174 143.175C244.105 100.544 215.551 86.3666 215.551 86.3666L244.404 39.9418L238.614 22.9693L205.867 32.8532C205.467 31.9547 205.068 30.9563 204.569 30.0578C190.392 1.50402 160.34 -7.28175 137.378 10.4895C113.816 -8.47981 86.5598 6.59578 86.5598 6.59578C86.5598 6.59578 100.238 22.9693 121.703 94.3537C162.637 230.333 157.645 342.851 111.02 525.955C62.998 518.467 25.4588 467.649 23.9612 406.448C23.3622 381.389 28.7534 357.927 38.4377 338.159C15.0756 359.724 0 394.368 0 433.504C0 434.902 0 436.4 0.0998383 437.797C1.69725 494.705 40.135 539.233 85.7611 539.233ZM180.807 28.9596C186.099 28.9596 190.392 33.2526 190.392 38.544C190.392 43.8355 186.099 48.1285 180.807 48.1285C175.516 48.1285 171.223 43.8355 171.223 38.544C171.323 33.2526 175.616 28.9596 180.807 28.9596Z" fill="#FFC7A1"/>
</svg>
