<svg width="268" height="287" viewBox="0 0 268 287" fill="none" xmlns="http://www.w3.org/2000/svg">
<path d="M127.609 245.499C101.95 229.325 86.2756 204.266 81.7829 181.703L23.078 286.233H0.214996L75.2934 67.6871C12.595 67.6871 0.214996 0.795471 0.214996 0.795471H123.515C101.152 4.48949 84.179 23.9579 84.179 47.3201C84.179 60.3989 94.7619 70.9818 107.841 70.9818C120.92 70.9818 131.502 60.3989 131.502 47.3201V0.795471L216.764 268.961C249.411 233.419 236.932 150.653 217.663 103.429C256.799 126.192 304.922 219.541 222.255 286.333H23.1778C40.6495 254.984 86.675 245.1 127.609 245.499ZM73.4964 11.1786C70.2017 11.1786 67.5061 13.8743 67.5061 17.1689C67.5061 20.4636 70.2017 23.1592 73.4964 23.1592C76.791 23.1592 79.4866 20.4636 79.4866 17.1689C79.3868 13.8743 76.791 11.1786 73.4964 11.1786Z" fill="#FFC7A1"/>
</svg>
