<svg width="299" height="261" viewBox="0 0 299 261" fill="none" xmlns="http://www.w3.org/2000/svg">
<path d="M283.798 93.1039C282.4 95.1006 280.803 96.9976 279.006 98.7947L253.647 124.154C220.501 112.173 194.044 86.0153 181.564 53.0687C188.053 50.6726 194.443 47.977 200.433 44.882V0.354065L227.589 27.5101C244.262 19.1237 265.029 21.9191 279.006 35.7967C280.903 37.6936 282.6 39.7902 284.098 41.8868H284.198C292.085 41.8868 298.474 48.2765 298.474 56.1637V78.3278C292.684 84.3181 288.69 88.3116 283.798 93.1039ZM265.628 39.1912C262.732 39.1912 260.436 41.4875 260.436 44.3828C260.436 47.2781 262.732 49.5743 265.628 49.5743C268.523 49.5743 270.819 47.2781 270.819 44.3828C270.719 41.4875 268.423 39.1912 265.628 39.1912Z" fill="#FFC7A1"/>
<path d="M246.059 131.841L221.299 156.601L210.916 260.233H198.137C198.137 260.233 187.255 226.887 181.164 181.461C131.046 180.462 93.2069 164.189 68.447 148.814L22.5214 260.233H8.4442C7.24614 194.939 17.7292 138.43 25.9159 105.184C16.9305 109.078 6.14791 106.282 0.257446 97.9959L34.9014 73.4357C34.9014 73.4357 109.98 76.6305 172.279 56.4632C185.158 90.7077 212.114 118.163 246.059 131.841Z" fill="#FFC7A1"/>
</svg>
