<svg width="375" height="550" viewBox="0 0 375 550" fill="none" xmlns="http://www.w3.org/2000/svg">
<path d="M244.235 0.732392L338.464 191.694C338.464 191.694 307.707 125.328 249.72 125.328C215.339 125.328 178.215 142.189 178.215 142.189L168.126 121.799L108.18 0.340248L85.6512 83.1754C85.6512 83.1754 78.2069 9.55505 18.4564 39.5522C33.9328 42.0029 51.9558 68.765 44.0218 96.8996C33.6389 133.661 0.0415039 227.377 0.0415039 227.377H55.4822C55.4822 227.377 101.421 197.282 118.465 175.814C94.3688 234.926 0.139551 549.405 0.139551 549.405H48.7235L104.164 344.523C105.633 340.308 109.453 337.563 113.665 337.563C121.305 337.563 126.203 346.091 122.677 353.247L48.8214 549.503H92.9975L164.306 350.307C168.028 342.562 175.571 337.563 183.799 337.563C202.703 337.563 213.184 355.6 201.822 372.853L92.8996 549.601H141.973L268.429 349.914C273.032 341.778 282.24 336.19 289.292 337.661C299.381 339.817 300.949 349.13 293.994 358.835L141.875 549.601H195.357C293.21 435.298 375 342.856 375 211.398C375 -22.0106 244.235 0.732392 244.235 0.732392ZM87.0225 145.13C81.5372 145.13 77.1294 140.719 77.1294 135.229C77.1294 129.74 81.5372 125.328 87.0225 125.328C92.5078 125.328 96.9156 129.74 96.9156 135.229C96.9156 140.719 92.5078 145.13 87.0225 145.13Z" fill="#FFC7A1"/>
</svg>
