<svg width="54" height="40" viewBox="0 0 54 40" fill="none" xmlns="http://www.w3.org/2000/svg">
<g clip-path="url(#clip0)">
<path d="M3.40612 16.6386V5.29795H0V2.59189C2.50406 2.59189 3.82017 2.05565 4.26381 0.302917H6.58056V16.6386H3.40612Z" fill="#999999"/>
<path d="M20.5007 8.44091C20.5007 13.6693 18.4649 16.9364 14.7581 16.9364C11.0513 16.9364 9.01062 13.6743 9.01062 8.44091C9.01062 3.20755 11.0513 0 14.7581 0C18.4649 0 20.5007 3.2423 20.5007 8.44091ZM12.2097 8.44091C12.2097 11.9166 13.0674 13.9474 14.7581 13.9474C16.4489 13.9474 17.3066 11.9166 17.3066 8.44091C17.3066 4.96524 16.4735 2.97915 14.7581 2.97915C13.0428 2.97915 12.2097 4.99503 12.2097 8.44091Z" fill="#999999"/>
<path d="M33.7063 8.44091C33.7063 13.6693 31.6705 16.9364 27.9637 16.9364C24.2569 16.9364 22.2162 13.6743 22.2162 8.44091C22.2162 3.20755 24.2569 0 27.9637 0C31.6705 0 33.7063 3.2423 33.7063 8.44091ZM25.4153 8.44091C25.4153 11.9166 26.273 13.9474 27.9637 13.9474C29.6544 13.9474 30.5121 11.9166 30.5121 8.44091C30.5121 4.96524 29.6791 2.97915 27.9637 2.97915C26.2483 2.97915 25.4153 4.99503 25.4153 8.44091Z" fill="#999999"/>
<path d="M43.2986 4.15592C43.2986 5.25155 42.8665 6.30231 42.0974 7.07704C41.3283 7.85177 40.2851 8.28701 39.1975 8.28701C38.1098 8.28701 37.0666 7.85177 36.2975 7.07704C35.5284 6.30231 35.0963 5.25155 35.0963 4.15592C35.0963 3.06029 35.5284 2.00954 36.2975 1.23481C37.0666 0.460079 38.1098 0.0248413 39.1975 0.0248413C40.2851 0.0248413 41.3283 0.460079 42.0974 1.23481C42.8665 2.00954 43.2986 3.06029 43.2986 4.15592ZM37.5314 4.15592C37.5201 4.38523 37.5546 4.61447 37.6328 4.83012C37.711 5.04577 37.8313 5.24345 37.9866 5.41147C38.1419 5.57949 38.3291 5.71445 38.5371 5.80837C38.745 5.9023 38.9696 5.95328 39.1975 5.95831C39.4237 5.95021 39.646 5.89629 39.8512 5.79976C40.0563 5.70324 40.24 5.56608 40.3913 5.39648C40.5427 5.22688 40.6586 5.0283 40.7321 4.81261C40.8056 4.59691 40.8352 4.36851 40.8192 4.14103C40.8352 3.91404 40.8056 3.68614 40.7319 3.471C40.6583 3.25586 40.5423 3.05794 40.3908 2.88912C40.2393 2.7203 40.0555 2.58407 39.8505 2.48862C39.6454 2.39317 39.4233 2.34047 39.1975 2.33368C38.9674 2.3372 38.7405 2.38784 38.5305 2.48252C38.3205 2.57721 38.1318 2.71394 37.9759 2.88442C37.8201 3.05489 37.7003 3.25553 37.6239 3.47412C37.5474 3.69271 37.516 3.92469 37.5314 4.15592ZM38.8524 16.6385L47.5871 0.302895H50.2242L41.5142 16.6385H38.8524ZM54 12.8352C53.9632 13.9054 53.5152 14.9193 52.7506 15.6633C51.986 16.4072 50.9644 16.8231 49.9013 16.8231C48.8383 16.8231 47.8167 16.4072 47.0521 15.6633C46.2875 14.9193 45.8395 13.9054 45.8027 12.8352C45.7836 12.2809 45.8755 11.7285 46.0729 11.2108C46.2702 10.6932 46.5691 10.2208 46.9516 9.82193C47.334 9.42306 47.7923 9.10585 48.2991 8.88919C48.8059 8.67254 49.3508 8.56089 49.9013 8.56089C50.4519 8.56089 50.9968 8.67254 51.5036 8.88919C52.0103 9.10585 52.4686 9.42306 52.8511 9.82193C53.2336 10.2208 53.5324 10.6932 53.7298 11.2108C53.9272 11.7285 54.0191 12.2809 54 12.8352ZM48.2574 12.8103C48.2357 13.0397 48.2619 13.271 48.3341 13.4895C48.4064 13.7081 48.5232 13.909 48.677 14.0794C48.8309 14.2499 49.0184 14.386 49.2275 14.4792C49.4366 14.5724 49.6628 14.6205 49.8915 14.6205C50.1202 14.6205 50.3463 14.5724 50.5554 14.4792C50.7646 14.386 50.9521 14.2499 51.1059 14.0794C51.2598 13.909 51.3766 13.7081 51.4488 13.4895C51.5211 13.271 51.5472 13.0397 51.5255 12.8103C51.554 12.5772 51.533 12.3407 51.4639 12.1163C51.3948 11.892 51.2792 11.685 51.1247 11.5091C50.9702 11.3332 50.7804 11.1923 50.5678 11.0958C50.3552 10.9993 50.1247 10.9494 49.8915 10.9494C49.6583 10.9494 49.4278 10.9993 49.2152 11.0958C49.0026 11.1923 48.8128 11.3332 48.6583 11.5091C48.5038 11.685 48.3882 11.892 48.3191 12.1163C48.25 12.3407 48.229 12.5772 48.2574 12.8103Z" fill="#999999"/>
<path d="M4.64823 28.5551V25.576H1.69067V28.5551H0.3302V21.6038H1.68082V24.3297H4.63837V21.6038H5.98899V28.5551H4.64823Z" fill="#999999"/>
<path d="M12.6238 28.5551L12.052 27.0159H9.29158L8.71486 28.5551H7.23608L9.91267 21.6038H11.3914L14.073 28.5551H12.6238ZM9.72536 25.8193H11.6182L10.7999 23.6345L10.6718 23.2473L10.5436 23.6345L9.72536 25.8193Z" fill="#999999"/>
<path d="M19.998 23.8332C19.998 25.1241 19.0615 26.0675 17.5728 26.0675H16.7003V28.5502H15.3497V21.5988H17.5728C19.0615 21.6038 19.998 22.5273 19.998 23.8332ZM16.7003 24.8262H17.5728C17.7172 24.8594 17.8671 24.8593 18.0115 24.8261C18.1559 24.7929 18.2909 24.7273 18.4067 24.6343C18.5224 24.5413 18.6159 24.4232 18.6801 24.2888C18.7444 24.1544 18.7777 24.0072 18.7777 23.858C18.7777 23.7088 18.7444 23.5616 18.6801 23.4272C18.6159 23.2928 18.5224 23.1747 18.4067 23.0817C18.2909 22.9887 18.1559 22.9231 18.0115 22.8899C17.8671 22.8567 17.7172 22.8566 17.5728 22.8898H16.7003V24.8262Z" fill="#999999"/>
<path d="M25.9919 23.8332C25.9919 25.1241 25.0554 26.0675 23.5667 26.0675H22.6745V28.5502H21.3436V21.5988H23.5667C25.0554 21.6038 25.9919 22.5273 25.9919 23.8332ZM22.6745 24.8262H23.547C23.6914 24.8594 23.8413 24.8593 23.9857 24.8261C24.13 24.7929 24.2651 24.7273 24.3809 24.6343C24.4966 24.5413 24.5901 24.4232 24.6543 24.2888C24.7186 24.1544 24.7519 24.0072 24.7519 23.858C24.7519 23.7088 24.7186 23.5616 24.6543 23.4272C24.5901 23.2928 24.4966 23.1747 24.3809 23.0817C24.2651 22.9887 24.13 22.9231 23.9857 22.8899C23.8413 22.8567 23.6914 22.8566 23.547 22.8898H22.6745V24.8262Z" fill="#999999"/>
<path d="M27.3376 28.5551V21.6038H28.6883V28.5551H27.3376Z" fill="#999999"/>
<path d="M34.9977 28.5551L32.119 24.3297L31.8528 23.8729V28.5402H30.5022V21.5889H31.843L34.6773 25.8193L34.9632 26.3158V21.6038H36.3138V28.5551H34.9977Z" fill="#999999"/>
<path d="M39.4833 22.8749V24.3644H41.7557V25.6256H39.4833V27.3088H42.1057V28.5799H38.1327V21.6286H42.1057V22.8997L39.4833 22.8749Z" fill="#999999"/>
<path d="M47.8137 23.5502H46.473C46.4807 23.4351 46.4643 23.3197 46.4247 23.2114C46.3851 23.1032 46.3232 23.0046 46.2432 22.9221C46.1632 22.8396 46.0668 22.7751 45.9602 22.7327C45.8537 22.6904 45.7396 22.6711 45.6252 22.6763C45.524 22.6651 45.4217 22.6765 45.3254 22.7096C45.2291 22.7426 45.1411 22.7966 45.0678 22.8676C44.9945 22.9386 44.9375 23.025 44.9009 23.1207C44.8644 23.2163 44.8491 23.3189 44.8562 23.4211C44.8562 23.9573 45.2308 24.1262 46.0688 24.4141C47.5476 24.9107 48.0405 25.5264 48.0405 26.5691C48.0405 27.9097 47.0546 28.6743 45.7533 28.6743C44.176 28.6743 43.3577 27.7409 43.3281 26.4201H44.6886C44.6777 26.565 44.6986 26.7106 44.7497 26.8465C44.8008 26.9824 44.8808 27.1054 44.9843 27.2067C45.0877 27.308 45.2119 27.3853 45.3482 27.433C45.4845 27.4806 45.6295 27.4976 45.773 27.4827C46.3547 27.4827 46.68 27.155 46.68 26.6882C46.68 26.2215 46.3153 25.9534 45.4576 25.6654C44.2055 25.2483 43.4859 24.6723 43.4859 23.5303C43.4859 22.3883 44.3041 21.4648 45.6646 21.4648C46.9462 21.4747 47.7842 22.1698 47.8137 23.5502Z" fill="#999999"/>
<path d="M53.6697 23.5502H52.3093C52.317 23.4351 52.3005 23.3197 52.261 23.2114C52.2214 23.1032 52.1595 23.0046 52.0795 22.9221C51.9994 22.8396 51.903 22.7751 51.7965 22.7327C51.69 22.6904 51.5758 22.6711 51.4614 22.6763C51.3595 22.6636 51.2561 22.6737 51.1585 22.7061C51.061 22.7384 50.9718 22.7921 50.8973 22.8633C50.8229 22.9346 50.765 23.0215 50.7279 23.118C50.6907 23.2144 50.6753 23.3179 50.6826 23.4211C50.6826 23.9573 51.0572 24.1262 51.8952 24.4141C53.374 24.9107 53.8669 25.5264 53.8669 26.5691C53.8669 27.9097 52.8811 28.6743 51.5797 28.6743C50.0024 28.6743 49.1841 27.7409 49.1545 26.4201H50.515C50.5042 26.565 50.525 26.7106 50.5761 26.8465C50.6272 26.9824 50.7072 27.1054 50.8107 27.2067C50.9141 27.308 51.0383 27.3853 51.1746 27.433C51.3109 27.4806 51.4559 27.4976 51.5995 27.4827C52.1811 27.4827 52.5064 27.155 52.5064 26.6882C52.5064 26.2215 52.1417 25.9534 51.284 25.6654C50.0319 25.2483 49.3123 24.6723 49.3123 23.5303C49.3123 22.3883 50.1305 21.4648 51.491 21.4648C52.7825 21.4747 53.6204 22.1698 53.6697 23.5502Z" fill="#999999"/>
<path d="M6.40801 35.3972H5.01796C4.90614 35.0625 4.68348 34.7768 4.38731 34.5878C4.09114 34.3989 3.73948 34.3183 3.39131 34.3595C2.25758 34.3595 1.4689 35.293 1.4689 36.5641C1.4689 37.8352 2.25758 38.7885 3.4406 38.7885C4.39688 38.7885 5.02289 38.3466 5.09683 37.5174H3.52933V36.3108H6.48688V36.8868C6.48688 38.8729 5.2595 40 3.46032 40C2.55827 40.0039 1.6916 39.6468 1.05098 39.0071C0.410365 38.3674 0.0482657 37.4975 0.0443437 36.5889C0.0404218 35.6802 0.394999 34.8073 1.03007 34.162C1.66514 33.5167 2.52869 33.1519 3.43074 33.148C4.11038 33.1103 4.78146 33.3151 5.326 33.7265C5.87054 34.1379 6.25366 34.7294 6.40801 35.3972Z" fill="#999999"/>
<path d="M10.0852 40C8.37966 40 7.41846 38.9772 7.41846 37.2245V33.2672H8.70006V37.2393C8.70006 38.2324 9.13877 38.8034 10.0852 38.8034C11.0316 38.8034 11.4506 38.2324 11.4506 37.2393V33.2672H12.7371V37.2393C12.7371 38.9772 11.7808 40 10.0852 40Z" fill="#999999"/>
<path d="M18.1397 39.8759L17.5975 38.3863H14.9751L14.4329 39.8759H13.0428L15.5814 33.2672H16.9863L19.5347 39.8709L18.1397 39.8759ZM15.3842 37.2791H17.1834L16.4095 35.2036L16.2666 34.8362L16.1433 35.2036L15.3842 37.2791Z" fill="#999999"/>
<path d="M23.4583 39.8759L22.1767 37.3933H21.5951V39.8759H20.3135V33.2672H22.3246C23.7393 33.2672 24.6463 34.1212 24.6463 35.3774C24.6546 35.7556 24.5513 36.1279 24.3495 36.4469C24.1477 36.766 23.8564 37.0176 23.5126 37.1698L24.9273 39.8759H23.4583ZM21.5951 36.2463H22.3246C22.9358 36.2463 23.3105 35.9434 23.3105 35.3625C23.3105 34.7816 22.9161 34.4638 22.3246 34.4638H21.5951V36.2463Z" fill="#999999"/>
<path d="M30.2854 39.8759L29.7432 38.3863H27.111L26.5687 39.8759H25.1935L27.732 33.2672H29.1369L31.6804 39.8709L30.2854 39.8759ZM27.5349 37.2791H29.3291L28.5552 35.2036L28.432 34.8362L28.3088 35.2036L27.5349 37.2791Z" fill="#999999"/>
<path d="M36.7032 39.8759L34.0118 35.8739L33.7555 35.4419V39.8759H32.4739V33.2672H33.7456L36.437 37.2741L36.7081 37.7408V33.2672H37.9552V39.8709L36.7032 39.8759Z" fill="#999999"/>
<path d="M42.1451 34.4787V39.8759H40.8586V34.4787H38.7242V33.2672H44.2795V34.4737L42.1451 34.4787Z" fill="#999999"/>
<path d="M46.3351 34.4787V35.8838H48.4891V37.0854H46.3351V38.6693H48.7997V39.8759H45.0288V33.2672H48.7997V34.4737L46.3351 34.4787Z" fill="#999999"/>
<path d="M51.146 34.4787V35.8838H53.2952V37.0854H51.146V38.6693H53.6107V39.8759H49.8348V33.2672H53.6107V34.4737L51.146 34.4787Z" fill="#999999"/>
</g>
<defs>
<clipPath id="clip0">
<rect width="54" height="40" fill="white"/>
</clipPath>
</defs>
</svg>
